<svg width="200" height="19" viewBox="0 0 200 19" fill="none" xmlns="http://www.w3.org/2000/svg">
<g clip-path="url(#clip0)">
<path d="M18.8568 3.46951V14.3811L14.5199 18.8048H0V16.1332H15.3005C15.5306 16.1332 15.7512 16.0418 15.9139 15.8792C16.0765 15.7165 16.1679 15.4959 16.1679 15.2659V6.17573H14.6587L5.48183 15.3352H0V4.47567L4.47567 0H18.8568V2.67152H3.5736C3.33895 2.67152 3.11392 2.76474 2.948 2.93065C2.78208 3.09657 2.68887 3.32161 2.68887 3.55625V12.6464H4.42363L13.5484 3.46951H18.8568Z" fill="#6A75FC"/>
<path d="M109.809 12.7852L108.474 14.1383V18.4752H103.408V0H108.474V7.70232L112.984 3.10521H119.264L113.314 9.17686L119.698 18.4752H113.713L109.809 12.7852Z" fill="#6A75FC"/>
<path d="M120.635 14.3291L127.556 7.25129H121.19V3.10522H133.784V7.25129L126.88 14.3291H134.253V18.4752H120.635V14.3291Z" fill="#6A75FC"/>
<path d="M41.1484 13.2361H45.4333C45.531 13.7894 45.8333 14.2856 46.28 14.6262C46.7267 14.9669 47.2852 15.1271 47.8446 15.075C48.9201 15.075 49.5794 14.6413 49.5794 13.9647C49.6487 11.4493 41.6342 14.0688 41.6342 7.63287C41.6804 6.95042 41.8608 6.28378 42.1649 5.67107C42.469 5.05837 42.8909 4.51162 43.4064 4.06211C43.922 3.61259 44.5211 3.26912 45.1696 3.05134C45.818 2.83356 46.503 2.74574 47.1854 2.79291C51.0712 2.79291 53.6907 4.85727 53.8122 7.99717H49.4926C49.4098 7.50713 49.1545 7.06287 48.7727 6.74471C48.3909 6.42655 47.9078 6.25547 47.4109 6.26242C46.4568 6.26242 45.7976 6.66141 45.7976 7.4594C45.7976 10.2003 54.0203 6.85223 54.0203 13.8086C54.0203 16.8618 51.5917 18.8567 47.8446 18.8567C44.0975 18.8567 41.3046 16.671 41.1484 13.2882" fill="#6A75FC"/>
<path d="M187.129 13.2361H191.414C191.511 13.7894 191.814 14.2856 192.26 14.6263C192.707 14.9669 193.266 15.1271 193.825 15.075C194.901 15.075 195.56 14.6413 195.56 13.9647C195.56 11.4493 187.528 14.0688 187.528 7.63288C187.574 6.94885 187.755 6.2807 188.06 5.6668C188.365 5.0529 188.789 4.50535 189.306 4.05561C189.824 3.60586 190.425 3.26279 191.075 3.0461C191.726 2.8294 192.413 2.74336 193.096 2.79291C196.982 2.79291 199.602 4.85727 199.723 7.99718H195.404C195.321 7.50713 195.066 7.06287 194.684 6.74471C194.302 6.42655 193.819 6.25548 193.322 6.26242C192.368 6.26242 191.709 6.66141 191.709 7.4594C191.709 10.2003 199.931 6.85224 199.931 13.8086C199.931 16.8618 197.503 18.8567 193.756 18.8567C190.009 18.8567 187.354 16.6189 187.129 13.2361Z" fill="#6A75FC"/>
<path d="M63.3875 0V3.10521H67.3081V7.25128H63.3875V12.4555C63.3502 12.7272 63.3777 13.0038 63.4679 13.2627C63.5582 13.5216 63.7085 13.7554 63.9065 13.945C64.1046 14.1346 64.3447 14.2745 64.6073 14.3533C64.8699 14.4322 65.1474 14.4476 65.4172 14.3985H67.3081V18.5966H64.6539C60.8201 18.5966 58.2873 16.4802 58.2873 12.6117V7.25128H55.5117V3.10521H58.2873V0H63.3875Z" fill="#6A75FC"/>
<path d="M143.759 2.79299C142.173 2.79299 140.623 3.26348 139.304 4.1449C137.986 5.02632 136.959 6.27905 136.353 7.74454C135.746 9.21002 135.589 10.8224 135.899 12.3775C136.21 13.9327 136.975 15.3607 138.098 16.4809C139.22 17.601 140.65 18.363 142.206 18.6702C143.762 18.9775 145.374 18.8163 146.838 18.2071C148.302 17.5978 149.552 16.5679 150.431 15.2476C151.31 13.9273 151.777 12.3761 151.773 10.7902C151.773 9.73854 151.566 8.69719 151.163 7.72579C150.76 6.75439 150.169 5.87202 149.425 5.12918C148.68 4.38634 147.797 3.79763 146.824 3.39675C145.852 2.99588 144.81 2.79071 143.759 2.79299ZM143.759 13.9475C143.134 13.9509 142.521 13.7687 142 13.4238C141.478 13.079 141.071 12.5871 140.829 12.0105C140.588 11.4339 140.523 10.7986 140.643 10.185C140.763 9.57138 141.062 9.00719 141.503 8.5639C141.944 8.12061 142.506 7.81819 143.119 7.69495C143.732 7.57172 144.368 7.63322 144.946 7.87167C145.523 8.11011 146.018 8.51477 146.365 9.03435C146.713 9.55392 146.899 10.165 146.899 10.7902C146.881 11.6125 146.542 12.3953 145.956 12.972C145.369 13.5487 144.581 13.8738 143.759 13.8781" fill="#6A75FC"/>
<path d="M76.745 2.79299C75.1592 2.79299 73.6089 3.26348 72.2906 4.1449C70.9722 5.02632 69.945 6.27905 69.3389 7.74454C68.7328 9.21002 68.5751 10.8224 68.8857 12.3775C69.1964 13.9327 69.9614 15.3607 71.084 16.4809C72.2066 17.601 73.6363 18.363 75.1921 18.6702C76.7479 18.9775 78.3599 18.8163 79.8241 18.2071C81.2883 17.5978 82.5388 16.5679 83.4173 15.2476C84.2959 13.9273 84.763 12.3761 84.7596 10.7902C84.7596 9.73854 84.5522 8.69719 84.1492 7.72579C83.7462 6.75439 83.1556 5.87202 82.4111 5.12918C81.6667 4.38634 80.783 3.79763 79.8108 3.39675C78.8385 2.99588 77.7967 2.79071 76.745 2.79299ZM76.745 13.9475C76.1199 13.9509 75.5077 13.7687 74.9862 13.4238C74.4648 13.079 74.0574 12.5871 73.8158 12.0105C73.5741 11.4339 73.5091 10.7986 73.629 10.185C73.7488 9.57138 74.0482 9.00719 74.489 8.5639C74.9299 8.12061 75.4924 7.81819 76.1053 7.69495C76.7182 7.57172 77.3539 7.63322 77.9319 7.87167C78.5098 8.11011 79.0039 8.51477 79.3516 9.03435C79.6993 9.55392 79.8849 10.165 79.8849 10.7902C79.8669 11.6125 79.5286 12.3953 78.9422 12.972C78.3558 13.5487 77.5675 13.8738 76.745 13.8781" fill="#6A75FC"/>
<path d="M184.821 11.9525H185.966C185.992 11.554 185.992 11.1541 185.966 10.7556C185.965 8.72349 185.195 6.76702 183.811 5.27883C182.428 3.79063 180.532 2.88084 178.506 2.73207C176.479 2.58329 174.471 3.20654 172.885 4.47671C171.299 5.74689 170.252 7.57 169.954 9.58012C169.656 11.5902 170.13 13.6386 171.28 15.3141C172.429 16.9896 174.17 18.1683 176.153 18.6134C178.136 19.0586 180.213 18.7375 181.969 17.7144C183.725 16.6913 185.029 15.042 185.619 13.0975H180.415C180.103 13.5828 179.651 13.962 179.119 14.1848C178.587 14.4075 178 14.4633 177.436 14.3448C176.871 14.2263 176.356 13.939 175.959 13.5211C175.561 13.1031 175.3 12.5743 175.21 12.0046H180.866L184.821 11.9525ZM178.021 6.43601C178.725 6.43261 179.405 6.69213 179.928 7.16378C180.451 7.63543 180.779 8.28526 180.848 8.9861L175.21 9.0208C175.271 8.3167 175.593 7.66086 176.113 7.18244C176.633 6.70403 177.314 6.43774 178.021 6.43601Z" fill="#6A75FC"/>
<path d="M96.7119 12.4382C96.5491 13.0217 96.1999 13.5359 95.7175 13.9024C95.2352 14.2689 94.6462 14.4675 94.0404 14.4679C94.0404 14.4679 91.1086 14.4679 91.1086 10.7902C91.1086 7.11252 94.0404 7.14722 94.0404 7.14722C94.6379 7.14249 95.2205 7.33315 95.6997 7.69015C96.1788 8.04716 96.5282 8.55096 96.6946 9.12484H101.725C101.316 7.19562 100.207 5.48636 98.6113 4.32676C97.016 3.16717 95.0479 2.63939 93.0864 2.84524C91.125 3.05109 89.3093 3.97597 87.9895 5.44149C86.6698 6.90701 85.9395 8.80934 85.9395 10.7815C85.9395 12.7537 86.6698 14.656 87.9895 16.1216C89.3093 17.5871 91.125 18.512 93.0864 18.7178C95.0479 18.9237 97.016 18.3959 98.6113 17.2363C100.207 16.0767 101.316 14.3674 101.725 12.4382H96.7119Z" fill="#6A75FC"/>
<path d="M168.531 8.67378V18.4751H163.483V10.0095C163.483 9.31941 163.209 8.65755 162.721 8.16955C162.233 7.68156 161.571 7.40741 160.881 7.40741C160.191 7.40741 159.529 7.68156 159.041 8.16955C158.553 8.65755 158.279 9.31941 158.279 10.0095V18.4925H153.266V3.10521H158.314V4.83997C159.094 3.94691 160.129 3.31319 161.279 3.02343C162.429 2.73367 163.64 2.80165 164.75 3.21831C165.861 3.63496 166.818 4.38045 167.493 5.35524C168.169 6.33004 168.531 7.48774 168.531 8.67378Z" fill="#6A75FC"/>
</g>
<defs>
<clipPath id="clip0">
<rect width="200" height="18.8048" fill="white"/>
</clipPath>
</defs>
</svg>
